<?xml version="1.0" encoding="utf-8"?>
<!-- Generator: Adobe Illustrator 25.4.1, SVG Export Plug-In . SVG Version: 6.00 Build 0)  -->
<svg version="1.1" id="Calque_1" xmlns="http://www.w3.org/2000/svg" xmlns:xlink="http://www.w3.org/1999/xlink" x="0px" y="0px"
	 viewBox="0 0 1920 1080" style="enable-background:new 0 0 1920 1080;" xml:space="preserve">
<style type="text/css">
	.st0{fill:#FEFEFE;}
	.st1{fill:#F1F1F1;}
	.st2{fill:#302F42;}
	.st3{fill:#E5E5E5;}
	.st4{fill:#CCCCCC;}
	.st5{fill:#6B62FC;}
	.st6{fill:#FAB4B4;}
</style>
<path class="st0" d="M1398.89,1031.06c-366.97,0-733.93,0-1101,0c0-263.93,0-527.89,0-792c366.93,0,733.97,0,1101,0
	C1398.89,502.98,1398.89,767.01,1398.89,1031.06z M612.79,481.91c0.13,0.39,0.25,0.78,0.38,1.17c0.4-0.38,0.81-0.76,1.21-1.14
	c2.5-2.56,1.04-4.03-1.53-4.84c-1.07-0.34-2.37,0.06-2.68,0.07C611.34,479.28,612.07,480.59,612.79,481.91z M600.75,478.92
	l0.03-0.06c-0.54,1.6-1.09,3.2-1.64,4.84c-0.52-0.21-1.13-0.45-1.74-0.7c-9.25-3.71-12.8-2.12-15.86,7.11
	c-2.45,7.41-6.92,10.45-14.73,9.71c-4.47-0.42-8.89-1.51-13.36-1.76c-15.41-0.87-26.73,13.06-22.69,28.05
	c1.16,4.28,3.17,8.38,5.22,12.35c4.96,9.63,4.93,10.66-2.17,18.83c-1.09,1.26-2.21,2.5-3.16,3.86c-3.81,5.41-2.95,12.19,2.67,15.68
	c3.12,1.94,7.02,3.17,10.69,3.55c16.22,1.66,26.2-8.23,25.01-24.37c-0.23-3.15-0.6-6.3-0.97-9.44c-1.95-16.65,6.92-29.62,23.4-33.79
	c-0.09,8.16,2.01,15.7,7.97,21.32c2.74,2.58,6.6,4.25,10.24,5.51c2.81,0.97,6.06,0.63,9.12,0.88c3.63,0.45,7.25,0.91,10.88,1.36
	c0.21,0.6,0.41,1.2,0.79,2.27c0.36-1.71,0.6-2.81,0.83-3.92c10.87-1.64,21.08-19.06,14.43-31.42c1.3-0.61,2.61-1.22,5.26-2.45
	c-3.1-5.23-5.41-10.61-9.02-14.88c-6-7.11-14.51-8.47-22.14-5.11c-2.34,1.03-5.17,0.94-8.43,1.48c0.85-2.29,1.16-3.14,1.56-4.22
	c-1.79,0.7-3.17,1.24-4.55,1.78c-0.25-1.7-0.5-3.41-0.56-3.78c-2.24-1.6-3.65-2.6-5.06-3.6C602.1,478.3,601.43,478.61,600.75,478.92
	z M536.64,908.59c-2.42-1.34-3.96-0.76-5.52,1.68c-3.43,5.38-7.25,10.52-10.91,15.75c-2.1-3.33-5.89-6.05-3.65-10.93
	c0.21-0.45-0.94-1.66-1.62-2.35c-4.64-4.74-13.2-3.29-15.84,3.18c-2.92,7.17-4.96,14.69-7.44,22.03c-0.34,1-1.04,1.87-1.94,3.43
	c-4.87-11.49-7.2-22.8-7.81-34.33c-1.22-23.06,3.54-44.94,15.49-64.82c3.77-6.27,8.9-11.83,14.02-17.13
	c4.57-4.74,8.6-9.54,10.33-15.98c-7.17-3.14-7.18-3.2-2.25-11.24c-6.35-7.72-15.73-6-19.36,3.8c-2.75,7.43-1.61,14.66,2.33,21.54
	c0.77,1.34,1.5,3.62,0.89,4.66c-3.49,5.89-7.39,11.53-11.26,17.42c-0.28-4.66-0.15-9.03-0.87-13.25
	c-1.88-10.97-8.79-19.16-16.04-26.99c-1.35-1.46-3.63-2.48-5.63-2.8c-3.87-0.62-7.1,0.96-9.45,4.24c-2.15,2.99-0.54,4.8,1.26,7.31
	c0.97,1.35-0.15,4.36-0.61,6.56c-0.4,1.94-2.02,4-1.64,5.67c3.14,13.65,10.15,24.85,22.34,32.2c2.98,1.8,3.64,3.54,2.95,6.86
	c-1.78,8.56-3.16,17.21-4.6,25.84c-0.63,3.77-1.01,7.58-1.55,11.75c-1.9-2.53-3.32-4.78-5.08-6.71
	c-8.73-9.57-21.23-12.71-32.12-18.6c-1.04-0.56-2.93-0.68-3.86-0.1c-1.57,0.99-3.14,2.52-3.77,4.18c-0.3,0.78,1.33,2.79,2.52,3.57
	c6.36,4.16,6.59,5.72,1.24,11.19c4.88,15.03,25.07,28.95,40.32,28.97c1.66,0,4.32,1.22,4.8,2.52c2.47,6.66,4.38,13.52,6.48,20.31
	c-22.94,0.23-45.88,0.45-68.81,0.68c0,0.53,0.01,1.06,0.01,1.6c145.22,0,290.44,0,435.66,0c0-0.75,0-1.5,0-2.25
	c-30.94,0-61.87,0-92.81,0c0-104.46-0.01-208.93-0.01-313.39c0-17.66,0.02-35.32-0.02-52.98c-0.01-3.74-0.84-7.18-5.38-7.61
	c-3.54-0.34-5.6,2.65-5.61,7.72c-0.02,15.49-0.12,30.99,0.07,46.48c0.05,3.74-1.06,5.01-4.81,4.79c-5.15-0.3-10.32-0.11-15.49-0.13
	c3.74-20.27,7.24-40.58,11.28-60.79c3.59-17.95,7.81-35.77,11.64-53.67c0.3-1.41,0.09-3.38-0.74-4.41
	c-0.49-0.61-3.38-0.45-3.92,0.29c-4.95,6.73-12.25,11.78-14.09,20.76c-3.47,16.95-7.31,33.82-10.98,50.72
	c-2.25,10.37-4.49,20.74-6.8,31.4c-4.55,0-8.7-0.04-12.84,0.01c-4.16,0.05-8.33,0.36-12.49,0.2c-3.48-0.13-6.93-0.75-10.78-1.2
	c4.22-3.58,7.87-6.43,11.23-9.59c6.57-6.17,6.88-8.15,3.27-16.28c9-7.83,17.99-15.67,27.01-23.48c4.01-3.48,5.07-8.81,2.59-13.44
	c-2.07-3.87-7.35-6.24-11.44-5.14c-5.06,1.36-8.45,5.86-8.41,10.98c0.01,1.19,0.03,2.9-0.68,3.51c-5.4,4.57-10.99,8.92-16.52,13.35
	c-2.6,0.96-5.33,1.66-7.76,2.94c-6.88,3.63-13.63,7.51-19.14,10.57c-10.34-8-20.15-15.56-29.9-23.19c-0.87-0.68-1.4-1.78-2.12-2.67
	c-5.7-7.11-11.81-13.75-19.98-18.29c-4.72,4.33-9.12,8.38-13.54,12.41c-0.84,0.77-1.68,1.91-2.66,2.08
	c-6.83,1.18-10.06,6.23-12.48,11.8c-5.47,12.6-10.55,25.37-15.95,38c-2.75,6.44-1.6,12,4.06,15.82c6.84,4.62,14.01,8.81,21.32,12.63
	c6.93,3.62,9.26,11.3,6.07,18.36c-2.46,5.46-3.89,11.53-4.75,17.48c-0.33,2.32,2.16,5.04,3.36,7.58
	c-1.07,10.94-3.67,21.84-0.82,32.87c-0.27,0.94-0.69,1.87-0.78,2.84c-2.38,26.21-4.95,52.41-6.97,78.65
	c-0.8,10.42-2.73,20.04-8.13,29.32c-10.03,17.24-19.11,35.04-28.44,52.68c-0.73,1.39-0.32,3.38-0.44,5.1
	c-0.39,0.9-0.73,1.82-1.18,2.69C544.68,893.41,540.66,901,536.64,908.59z M926.75,350.84c0.37,2.05,1.05,4.09,1.06,6.14
	c0.06,73.42,0.04,146.84,0.05,220.26c0.01,39.29,0.05,78.58,0.07,117.87c0,4.11,0,8.23,0,12.45c5.85,0.49,11.1,1.28,16.36,1.33
	c29.24,0.25,58.44,0.57,87.55-3.65c24.72-3.58,48.93-8.89,72.44-17.26c3.66-1.3,7.08-3.29,10.61-4.97c2.07-0.55,4.29-0.79,6.19-1.69
	c7.78-3.72,15.58-7.42,23.16-11.52c26.13-14.11,48.66-32.57,67.83-55.33c16.88-20.04,29.84-42.31,39.61-66.46
	c13.58-33.56,19.59-68.75,21.05-104.74c0.5-12.26-0.32-24.59-0.97-36.87c-0.37-6.91-1.38-13.82-2.52-20.66
	c-1.93-11.57-4.19-23.09-6.32-34.63c8.41-0.67,13.62-5.24,15.56-13.64c1.35-5.82-2.45-13.35-8.43-16.71
	c-8.88-4.99-19.85-0.49-23.12,9.84c-1.1,3.48-2.63,4.82-6.27,4.44c-5.28-0.56-10.59-0.85-15.9-0.98
	c-15.97-0.41-31.94-0.99-47.91-0.95c-41.64,0.1-83.27,0.54-124.91,0.76c-23.66,0.13-47.33,0.11-71,0.17c-1.66,0-3.33,0.14-4.99,0.14
	c-12.44,0.01-24.88,0.01-37.65,0.01c-0.39-1.28-0.82-3.03-1.47-4.71c-2.44-6.36-7.15-9.96-13.89-10.49
	c-6.8-0.53-12.06,2.51-15.26,8.4c-3.18,5.85-2.85,11.69,1.2,17.31C913.48,351.02,919.9,351.41,926.75,350.84z"/>
<path class="st1" d="M927.93,695.11c-0.03-39.29-0.07-78.58-0.07-117.87c-0.01-73.42,0.01-146.84-0.05-220.26
	c0-2.05-0.69-4.09-1.06-6.14c6.01-3.09,10.18-7.72,11.47-14.38c10.88,0.49,21.16,1.33,31.44,1.35c52.12,0.14,104.24,0.1,156.37,0.02
	c7.46-0.01,14.92-0.78,22.38-0.81c31.47-0.11,62.95-0.1,94.42,0.03c1.34,0.01,3.45,1.42,3.89,2.64c2.76,7.75,8.19,11.34,16.22,11.41
	c2.12,11.54,4.39,23.06,6.32,34.63c1.14,6.84,2.15,13.75,2.52,20.66c0.65,12.28,1.47,24.61,0.97,36.87
	c-1.47,35.98-7.47,71.18-21.05,104.74c-9.78,24.15-22.73,46.42-39.61,66.46c-19.17,22.77-41.7,41.23-67.83,55.33
	c-7.58,4.09-15.38,7.8-23.16,11.52c-1.9,0.91-4.12,1.15-6.19,1.69c-1-0.06-2-0.07-2.99-0.18c-18.43-1.93-36.82-4.94-55.3-5.58
	c-28.21-0.97-56.49-1.06-84.52,3.69C956.65,683.55,941.28,686.11,927.93,695.11z M1068.37,581.96c29.17,0,58.33,0.05,87.5-0.12
	c1.88-0.01,3.74-1.81,5.61-2.78c-1.81-1.02-3.61-2.08-5.46-3.04c-0.39-0.2-0.98-0.03-1.48-0.03c-57.33,0-114.66,0-171.99,0
	c-1.17,0-2.54-0.37-3.45,0.12c-1.24,0.66-2.12,1.99-3.15,3.03c0.98,0.93,1.81,2.21,2.98,2.68c1.15,0.47,2.63,0.13,3.96,0.13
	C1011.37,581.96,1039.87,581.96,1068.37,581.96z M1068.36,509.96c29.17,0,58.33,0.05,87.5-0.12c1.88-0.01,3.75-1.8,5.62-2.77
	c-1.81-1.02-3.61-2.08-5.45-3.04c-0.39-0.2-0.98-0.03-1.48-0.03c-57.33,0-114.66,0-171.99,0c-1.17,0-2.54-0.37-3.45,0.12
	c-1.24,0.66-2.12,1.98-3.16,3.02c0.98,0.93,1.81,2.21,2.97,2.68c1.15,0.47,2.63,0.13,3.96,0.13
	C1011.36,509.96,1039.86,509.96,1068.36,509.96z M1068.3,426.99c28.81,0,57.61,0,86.42-0.01c1.5,0,3.05,0.13,4.46-0.22
	c0.68-0.17,1.61-1.38,1.55-2.04c-0.08-0.92-0.8-2.24-1.58-2.54c-1.16-0.46-2.61-0.24-3.94-0.24c-57.78-0.01-115.56-0.01-173.34,0
	c-1.16,0-2.43-0.22-3.46,0.17c-0.93,0.35-2.36,1.58-2.23,2.08c0.27,1.03,1.26,2.28,2.24,2.61c1.35,0.46,2.96,0.19,4.45,0.19
	C1011.36,426.99,1039.83,426.99,1068.3,426.99z M1035.85,449.95c18.16,0,36.33,0,54.49,0c1.33,0,2.81,0.31,3.96-0.16
	c1.22-0.51,2.12-1.78,3.17-2.72c-0.98-1-1.82-2.21-2.98-2.91c-0.75-0.45-1.95-0.16-2.95-0.16c-36.66,0-73.32-0.01-109.98,0.02
	c-2.35,0-5.68-0.78-5.51,3.11c0.17,3.8,3.52,2.79,5.82,2.8C999.85,449.98,1017.85,449.95,1035.85,449.95z M1036.33,587
	c-17.81,0-35.63-0.06-53.44,0.07c-2.49,0.02-6.75-1.57-6.73,2.72c0.01,4.39,4.35,3.12,7.07,3.13c35.79,0.08,71.59,0.05,107.38,0.05
	c1.33,0,2.84,0.32,3.94-0.2c1.17-0.55,2.4-1.81,2.72-2.99c0.16-0.6-1.47-2.08-2.56-2.52c-1.15-0.47-2.62-0.24-3.94-0.24
	C1072.63,586.99,1054.48,587,1036.33,587z M1036.34,514.99c-17.98,0-35.96,0-53.94,0c-1.33,0-2.8-0.28-3.95,0.19
	c-1.02,0.41-2.45,1.81-2.33,2.56c0.17,1.14,1.34,2.48,2.44,3.02c1.08,0.53,2.61,0.19,3.94,0.19c35.96,0,71.92,0,107.88,0
	c1.33,0,2.8,0.28,3.95-0.19c1.02-0.41,2.44-1.8,2.32-2.56c-0.17-1.14-1.33-2.48-2.43-3.02c-1.08-0.53-2.61-0.19-3.94-0.19
	C1072.3,514.99,1054.32,514.99,1036.34,514.99z M1036.29,437.99c18.31,0,36.61,0,54.92-0.01c1.33,0,2.73,0.15,3.96-0.22
	c0.7-0.21,1.61-1.38,1.56-2.04c-0.08-0.92-0.78-2.17-1.57-2.56c-0.95-0.47-2.27-0.23-3.44-0.23c-36.78-0.01-73.56-0.01-110.33,0
	c-1.16,0-2.47-0.2-3.43,0.27c-0.84,0.41-1.67,1.58-1.79,2.51c-0.08,0.61,1,1.8,1.76,1.99c1.41,0.37,2.96,0.27,4.45,0.27
	C1000.34,438,1018.32,437.99,1036.29,437.99z M985.24,570.02c5.41-0.08,9.33-3.85,9.34-9c0.01-5.3-4.21-9.18-9.82-9.03
	c-5.48,0.14-9,3.82-8.9,9.28C975.96,566.66,979.65,570.1,985.24,570.02z M991.6,406.8c0.01-5.24-3.73-8.87-9.19-8.94
	c-5.62-0.07-9.35,3.3-9.47,8.55c-0.13,5.35,3.94,9.42,9.37,9.39C987.55,415.76,991.59,411.84,991.6,406.8z M984.95,498.04
	c5.41,0.08,9.51-3.6,9.62-8.64c0.12-5.18-3.72-9.18-9-9.37c-5.64-0.21-9.69,3.55-9.71,9.02
	C975.84,494.52,979.32,497.97,984.95,498.04z"/>
<path class="st2" d="M549.86,883.12c0.12-1.71-0.29-3.71,0.44-5.1c9.33-17.64,18.41-35.44,28.44-52.68
	c5.4-9.28,7.33-18.9,8.13-29.32c2.02-26.24,4.59-52.44,6.97-78.65c0.09-0.96,0.51-1.89,0.78-2.84c3.33,4.06,7.87,5.49,12.85,5.41
	c4.97-0.07,10-0.22,14.89-1.01c18.25-2.94,35.89-8.08,52.95-15.22c0.78,7.26,1.71,14.51,2.31,21.78
	c4.37,52.88,8.68,105.76,12.99,158.64c0.6,7.4,1.09,14.81,1.64,22.44c-2.5,0.28-4.45,0.5-6.4,0.72c-4.72,0.34-9.44,0.68-14.17,1.03
	c-12.42-2.63-24.85-5.25-37.48-7.92c1.79-16.34,2.61-31.85,5.37-47.02c4.1-22.55-0.36-44.35-4.05-66.49
	c-11.38,39.48-22.76,78.96-34.25,118.8c-12.41-5.36-24.39-10.54-36.38-15.72C559.88,887.7,554.87,885.41,549.86,883.12z"/>
<path class="st2" d="M696.38,590.36c3.61,8.13,3.3,10.11-3.27,16.28c-3.36,3.16-7.02,6.01-11.23,9.59c3.85,0.45,7.31,1.07,10.78,1.2
	c4.15,0.15,8.32-0.16,12.49-0.2c4.14-0.05,8.28-0.01,12.84-0.01c2.31-10.66,4.54-21.03,6.8-31.4c3.68-16.9,7.51-33.77,10.98-50.72
	c1.84-8.98,9.14-14.03,14.09-20.76c0.55-0.74,3.43-0.9,3.92-0.29c0.82,1.03,1.04,3,0.74,4.41c-3.82,17.9-8.05,35.72-11.64,53.67
	c-4.04,20.21-7.54,40.52-11.28,60.79c-20.95,0-41.9,0-62.85-0.01c-2.83-5.37-7.04-8.11-13.28-7.04c0.09-4.49,0.05-8.98,0.3-13.45
	c0.93-16.61-8.07-27.58-20.78-37.1c6.21,17.48,12.25,34.47,18.29,51.46c-2.17,2.26-4.5,2.71-7.6,1.61
	c-4.67-1.66-9.51-2.93-14.35-3.99c-1.41-0.31-3.83,0.15-4.53,1.14c-2.33,3.32-4.1,7.03-6.54,11.41c14.68,3.38,28.59,6.58,42.5,9.79
	c2.74,4.14,5.69,8.16,8.18,12.45c5.9,10.15,5.27,12.08-5.06,17.77c-3.48-8.91-6.96-17.82-10.63-27.23
	c-1.24,2.19-1.81,4.35-3.21,5.45c-5.64,4.44-7.81,10.52-9.2,17.2c-1.21,5.86-3.98,8.12-9.97,8.61c-2.82,0.23-5.66,0.16-8.49,0.2
	c-9.64,0.16-19.29,0.31-28.93,0.47c-1.2-2.54-3.7-5.26-3.36-7.58c0.86-5.95,2.29-12.02,4.75-17.48c3.18-7.06,0.86-14.73-6.07-18.36
	c-7.31-3.83-14.49-8.01-21.32-12.63c-5.66-3.82-6.82-9.37-4.06-15.82c5.4-12.63,10.48-25.4,15.95-38
	c2.42-5.57,5.65-10.62,12.48-11.8c0.98-0.17,1.82-1.32,2.66-2.08c4.42-4.03,8.81-8.08,13.54-12.41
	c8.18,4.54,14.29,11.18,19.98,18.29c0.71,0.89,1.25,1.99,2.12,2.67c9.75,7.62,19.56,15.18,29.9,23.19
	c5.51-3.06,12.26-6.93,19.14-10.57c2.43-1.28,5.17-1.98,7.76-2.95C691.4,580.88,693.89,585.62,696.38,590.36z M730.48,601.46
	c5.96-26.86,11.81-53.22,17.65-79.57c-0.65-0.26-1.3-0.53-1.95-0.79c-3.43,6.47-8.22,12.59-10.03,19.49
	c-4.41,16.83-7.34,34.05-11.11,51.06C724.01,596.36,725.35,599.29,730.48,601.46z"/>
<path class="st2" d="M608.39,485.37c1.38-0.54,2.76-1.08,4.55-1.79c-0.4,1.08-0.72,1.93-1.56,4.22c3.26-0.53,6.09-0.45,8.43-1.48
	c7.62-3.36,16.13-2,22.14,5.11c3.61,4.27,5.92,9.65,9.02,14.88c-2.65,1.23-3.95,1.84-5.26,2.45c-2.79,0.13-5.58,0.26-8.53,0.39
	c-0.41-1.45-0.8-2.82-1.25-4.41c-4.07,5.23-7.47,10.05-6.16,17.07c1.13,6.01,1.05,12.24,1.51,18.37c-0.23,1.11-0.47,2.21-0.83,3.92
	c-0.37-1.08-0.58-1.68-0.79-2.27c-1.27-6.67-1.93-13.62-8.35-17.97c-0.48,2.27,0.04,4.16,0.66,6.02c1.44,4.3,1.56,8.18-3.2,10.59
	c-3.06-0.24-6.31,0.09-9.12-0.88c-3.64-1.25-7.51-2.92-10.24-5.51c-5.96-5.62-8.06-13.16-7.97-21.32
	c-16.47,4.17-25.35,17.14-23.4,33.79c0.37,3.14,0.74,6.28,0.97,9.44c1.19,16.14-8.79,26.03-25.01,24.37
	c-3.67-0.38-7.58-1.61-10.69-3.55c-5.62-3.49-6.48-10.27-2.67-15.68c0.96-1.36,2.07-2.61,3.16-3.86c7.1-8.17,7.12-9.2,2.17-18.83
	c-2.04-3.97-4.06-8.07-5.22-12.35c-4.05-14.99,7.28-28.93,22.69-28.05c4.47,0.25,8.89,1.34,13.36,1.76
	c7.82,0.74,12.28-2.3,14.73-9.71c3.06-9.23,6.6-10.82,15.86-7.11c0.61,0.25,1.22,0.49,1.74,0.7c0.56-1.64,1.1-3.24,1.64-4.84
	c0.8,2.96,1.61,5.92,2.41,8.89c0.48-0.11,0.97-0.21,1.45-0.32c0.16-1.45,0.32-2.9,0.6-5.45c0.92,1.7,1.28,2.36,1.64,3.02
	c0.26,0.71,0.52,1.42,0.78,2.13c0.2-0.57,0.4-1.14,0.6-1.71L608.39,485.37z"/>
<path class="st3" d="M668.75,632.92c20.95,0,41.9,0,62.85,0.01c5.16,0.02,10.34-0.17,15.49,0.13c3.75,0.22,4.86-1.05,4.81-4.79
	c-0.19-15.49-0.09-30.99-0.07-46.48c0.01-5.07,2.07-8.06,5.61-7.72c4.54,0.43,5.37,3.87,5.38,7.61c0.03,17.66,0.02,35.32,0.02,52.98
	c0,104.46,0.01,208.93,0.01,313.39c-3.67-0.01-7.34-0.01-11.01-0.02c0-99.41-0.03-198.83,0.08-298.24c0.01-4.47-1.03-5.94-5.75-5.91
	c-26.8,0.21-53.61,0.06-80.42,0.03C666.75,640.24,667.75,636.58,668.75,632.92z"/>
<path class="st1" d="M488.78,948.01c-2.1-6.79-4.01-13.66-6.48-20.31c-0.48-1.29-3.14-2.51-4.8-2.52
	c-15.25-0.03-35.44-13.95-40.32-28.97c5.35-5.47,5.12-7.03-1.24-11.19c-1.19-0.78-2.82-2.78-2.52-3.57
	c0.63-1.66,2.21-3.19,3.77-4.18c0.93-0.58,2.81-0.47,3.86,0.1c10.89,5.89,23.39,9.03,32.12,18.6c1.76,1.93,3.18,4.18,5.08,6.71
	c0.54-4.16,0.92-7.97,1.55-11.75c1.44-8.63,2.82-17.28,4.6-25.84c0.69-3.32,0.03-5.06-2.95-6.86c-12.19-7.36-19.19-18.55-22.34-32.2
	c-0.38-1.67,1.24-3.73,1.64-5.67c0.45-2.2,1.58-5.21,0.61-6.56c-1.8-2.51-3.41-4.32-1.26-7.31c2.36-3.28,5.58-4.86,9.45-4.24
	c2,0.32,4.28,1.35,5.63,2.8c7.25,7.83,14.16,16.01,16.04,26.99c0.72,4.22,0.59,8.59,0.87,13.25c3.87-5.9,7.77-11.54,11.26-17.42
	c0.62-1.04-0.12-3.33-0.89-4.66c-3.94-6.88-5.08-14.1-2.33-21.54c3.63-9.8,13.01-11.52,19.36-3.8c-4.93,8.04-4.92,8.1,2.25,11.24
	c-1.73,6.44-5.76,11.25-10.33,15.98c-5.12,5.3-10.25,10.87-14.02,17.13c-11.95,19.88-16.71,41.76-15.49,64.82
	c0.61,11.53,2.94,22.85,7.81,34.33c0.9-1.57,1.61-2.44,1.94-3.43c2.49-7.34,4.53-14.87,7.44-22.03c2.63-6.47,11.2-7.92,15.84-3.18
	c0.68,0.7,1.82,1.9,1.62,2.35c-2.24,4.87,1.55,7.6,3.65,10.93c-0.38,2.13-4.58,4.1-0.27,6.42c-1.12,2.77-2.03,5.65-3.41,8.29
	c-1.32,2.53-3.1,4.82-4.68,7.21C504.17,947.97,496.48,947.99,488.78,948.01z"/>
<path class="st4" d="M927.93,695.11c13.35-9,28.72-11.56,44.15-14.17c28.03-4.75,56.32-4.66,84.52-3.69
	c18.48,0.64,36.87,3.64,55.3,5.58c0.99,0.1,1.99,0.12,2.99,0.18c-3.53,1.67-6.95,3.66-10.61,4.97
	c-23.52,8.37-47.72,13.69-72.44,17.26c-29.11,4.21-58.31,3.9-87.55,3.65c-5.26-0.05-10.51-0.83-16.36-1.33
	C927.93,703.33,927.93,699.22,927.93,695.11z"/>
<path class="st5" d="M595.45,681.67c9.64-0.16,19.29-0.31,28.93-0.47c2.83-0.05,5.67,0.03,8.49-0.2c5.99-0.49,8.76-2.75,9.97-8.61
	c1.39-6.69,3.55-12.76,9.2-17.2c1.4-1.1,1.97-3.26,3.21-5.45c3.67,9.41,7.15,18.32,10.63,27.23c3.14,8.92,6.29,17.85,9.43,26.77
	c-17.06,7.14-34.7,12.28-52.95,15.22c-4.89,0.79-9.92,0.94-14.89,1.01c-4.98,0.07-9.51-1.36-12.85-5.41
	C591.78,703.5,594.38,692.6,595.45,681.67z"/>
<path class="st4" d="M1262.93,351.11c-8.04-0.07-13.46-3.67-16.22-11.41c-0.44-1.22-2.55-2.63-3.89-2.64
	c-31.47-0.13-62.95-0.14-94.42-0.03c-7.46,0.03-14.92,0.8-22.38,0.81c-52.12,0.08-104.24,0.12-156.37-0.02
	c-10.28-0.03-20.56-0.86-31.44-1.35c-1.29,6.66-5.47,11.29-11.47,14.38c-6.85,0.57-13.27,0.18-17.84-6.16
	c-4.05-5.61-4.38-11.45-1.2-17.31c3.2-5.89,8.46-8.94,15.26-8.4c6.74,0.53,11.44,4.13,13.89,10.49c0.64,1.67,1.07,3.43,1.47,4.71
	c12.77,0,25.21,0.01,37.65-0.01c1.66,0,3.33-0.14,4.99-0.14c23.67-0.06,47.33-0.04,71-0.17c41.64-0.23,83.27-0.66,124.91-0.76
	c15.97-0.04,31.94,0.55,47.91,0.95c5.31,0.14,10.62,0.42,15.9,0.98c3.65,0.39,5.17-0.95,6.27-4.44
	c3.27-10.33,14.24-14.83,23.12-9.84c5.98,3.36,9.78,10.89,8.43,16.71C1276.54,345.87,1271.34,350.43,1262.93,351.11z"/>
<path class="st4" d="M488.78,948.01c7.69-0.02,15.38-0.05,23.07-0.07c11.51,0.03,23.03,0.05,34.54,0.08c2.69,0,5.38,0,8.07,0
	c37.48,0.01,74.95,0.02,112.43,0.03c3.46-0.74,7.76-3.13,10.22-1.88c5.86,2.96,11.63,1.19,17.37,1.56c4,0.26,8.07-0.58,12.11-0.93
	c1.68,0.4,3.36,1.14,5.05,1.16c13.39,0.1,26.78,0.07,40.17,0.07c3.67,0.01,7.34,0.01,11.01,0.02c30.94,0,61.87,0,92.81,0
	c0,0.75,0,1.5,0,2.25c-145.22,0-290.44,0-435.66,0c0-0.53-0.01-1.06-0.01-1.6C442.91,948.47,465.85,948.24,488.78,948.01z"/>
<path class="st2" d="M554.47,948.02c-2.69,0-5.38,0-8.07,0c-3.38-2.19-6.57-4.8-10.19-6.46c-5-2.29-8.25-5.1-6.59-11.12
	c0.02-0.08-0.43-0.29-0.72-0.48c-1.42,1.53-2.86,3.07-4.31,4.64c-1.69-0.79-3.16-1.47-4.63-2.15c-4.31-2.32-0.12-4.3,0.27-6.42
	c3.66-5.24,7.48-10.37,10.91-15.75c1.56-2.44,3.1-3.02,5.52-1.68c3.71,1.82,7.42,3.65,11.13,5.47c2.92,1.24,1.68,3.12,0.49,4.64
	c-2.16,2.76-1.74,5.25-0.17,8.16c2.51,4.62,4.92,9.35,6.75,14.27C555.58,943.1,554.64,945.7,554.47,948.02z"/>
<path class="st6" d="M696.38,590.36c-2.49-4.74-4.98-9.48-7.47-14.22c5.53-4.42,11.12-8.77,16.52-13.34
	c0.72-0.61,0.69-2.31,0.68-3.51c-0.03-5.13,3.35-9.62,8.41-10.98c4.09-1.1,9.37,1.27,11.44,5.14c2.48,4.63,1.42,9.96-2.59,13.44
	C714.37,574.69,705.38,582.53,696.38,590.36z"/>
<path class="st6" d="M631.28,540.19c-0.46-6.13-0.38-12.36-1.51-18.37c-1.32-7.02,2.08-11.84,6.16-17.07
	c0.45,1.6,0.84,2.96,1.25,4.41c2.94-0.14,5.73-0.26,8.53-0.39C652.36,521.13,642.15,538.55,631.28,540.19z"/>
<path class="st6" d="M547.77,914.06c-3.71-1.82-7.42-3.65-11.13-5.47c4.01-7.59,8.04-15.18,12.04-22.78
	c0.45-0.86,0.79-1.79,1.18-2.69c5.01,2.29,10.02,4.58,15.03,6.87c-0.89,1.38-1.72,2.8-2.67,4.12
	C557.42,900.78,552.59,907.41,547.77,914.06z"/>
<path class="st6" d="M618.78,540.48c4.76-2.42,4.64-6.29,3.2-10.59c-0.62-1.86-1.14-3.74-0.66-6.02c6.42,4.35,7.08,11.3,8.35,17.97
	C626.04,541.39,622.41,540.93,618.78,540.48z"/>
<path class="st4" d="M606.89,484.99c-0.36-0.66-0.71-1.32-1.64-3.02c-0.28,2.55-0.44,4-0.6,5.45c-0.48,0.11-0.97,0.21-1.45,0.32
	c-0.8-2.96-1.61-5.92-2.41-8.89c0,0-0.03,0.06-0.03,0.06c0.67-0.31,1.34-0.62,2.01-0.92c1.41,1,2.82,2,5.06,3.6
	c0.05,0.37,0.3,2.07,0.56,3.78c0,0-0.12,0.04-0.13,0.03C607.8,485.26,607.34,485.13,606.89,484.99z"/>
<path class="st3" d="M612.79,481.91c-0.73-1.31-1.45-2.63-2.62-4.74c0.31-0.02,1.61-0.41,2.68-0.07c2.57,0.82,4.02,2.29,1.53,4.84
	C613.85,481.93,613.32,481.92,612.79,481.91z"/>
<path class="st2" d="M602.77,477.99c-0.67,0.31-1.34,0.62-2.01,0.92C601.43,478.61,602.1,478.3,602.77,477.99z"/>
<path class="st2" d="M612.79,481.91c0.53,0.01,1.06,0.02,1.59,0.03c-0.4,0.38-0.8,0.76-1.21,1.14
	C613.05,482.69,612.92,482.3,612.79,481.91z"/>
<path class="st4" d="M1068.37,581.96c-28.5,0-57,0-85.5,0c-1.33,0-2.81,0.34-3.96-0.13c-1.16-0.48-2-1.76-2.98-2.68
	c1.03-1.04,1.92-2.37,3.15-3.03c0.91-0.49,2.28-0.12,3.45-0.12c57.33,0,114.66,0,171.99,0c0.5,0,1.09-0.17,1.48,0.03
	c1.85,0.96,3.64,2.01,5.46,3.04c-1.87,0.97-3.74,2.77-5.61,2.78C1126.7,582.01,1097.53,581.96,1068.37,581.96z"/>
<path class="st4" d="M1068.36,509.96c-28.5,0-57,0-85.5,0c-1.33,0-2.81,0.34-3.96-0.13c-1.16-0.48-1.99-1.76-2.97-2.68
	c1.04-1.04,1.92-2.36,3.16-3.02c0.91-0.49,2.28-0.12,3.45-0.12c57.33,0,114.66,0,171.99,0c0.5,0,1.09-0.17,1.48,0.03
	c1.85,0.96,3.64,2.02,5.45,3.04c-1.87,0.96-3.74,2.75-5.62,2.77C1126.69,510.01,1097.53,509.96,1068.36,509.96z"/>
<path class="st4" d="M1068.3,426.99c-28.47,0-56.95,0-85.42,0c-1.5,0-3.11,0.27-4.45-0.19c-0.98-0.34-1.98-1.58-2.24-2.61
	c-0.13-0.5,1.3-1.73,2.23-2.08c1.03-0.39,2.3-0.17,3.46-0.17c57.78,0,115.56,0,173.34,0c1.33,0,2.78-0.23,3.94,0.24
	c0.78,0.31,1.49,1.62,1.58,2.54c0.06,0.66-0.86,1.87-1.55,2.04c-1.42,0.36-2.97,0.22-4.46,0.22
	C1125.91,426.99,1097.11,426.99,1068.3,426.99z"/>
<path class="st4" d="M1035.85,449.95c-18,0-35.99,0.03-53.99-0.03c-2.3-0.01-5.66,1-5.82-2.8c-0.17-3.89,3.16-3.11,5.51-3.11
	c36.66-0.03,73.32-0.02,109.98-0.02c1,0,2.2-0.29,2.95,0.16c1.16,0.7,2,1.92,2.98,2.91c-1.04,0.94-1.94,2.21-3.17,2.72
	c-1.14,0.48-2.62,0.16-3.96,0.16C1072.18,449.95,1054.01,449.95,1035.85,449.95z"/>
<path class="st4" d="M1036.33,587c18.15,0,36.29,0,54.44,0.01c1.33,0,2.79-0.24,3.94,0.24c1.08,0.44,2.72,1.92,2.56,2.52
	c-0.33,1.19-1.55,2.44-2.72,2.99c-1.1,0.52-2.61,0.2-3.94,0.2c-35.79,0.01-71.59,0.03-107.38-0.05c-2.72-0.01-7.06,1.27-7.07-3.13
	c-0.01-4.29,4.24-2.7,6.73-2.72C1000.71,586.94,1018.52,587,1036.33,587z"/>
<path class="st4" d="M1036.34,514.99c17.98,0,35.96,0,53.94,0c1.33,0,2.85-0.34,3.94,0.19c1.09,0.54,2.26,1.88,2.43,3.02
	c0.11,0.76-1.31,2.15-2.32,2.56c-1.15,0.47-2.62,0.19-3.95,0.19c-35.96,0.01-71.92,0.01-107.88,0c-1.33,0-2.85,0.34-3.94-0.19
	c-1.1-0.54-2.26-1.88-2.44-3.02c-0.12-0.75,1.32-2.14,2.33-2.56c1.15-0.47,2.62-0.19,3.95-0.19
	C1000.38,514.99,1018.36,514.99,1036.34,514.99z"/>
<path class="st4" d="M1036.29,437.99c-17.97,0-35.95,0-53.92-0.01c-1.49,0-3.04,0.1-4.45-0.27c-0.75-0.2-1.83-1.38-1.76-1.99
	c0.12-0.93,0.94-2.1,1.79-2.51c0.96-0.47,2.27-0.27,3.43-0.27c36.78-0.01,73.56-0.01,110.33,0c1.16,0,2.48-0.24,3.44,0.23
	c0.79,0.39,1.49,1.63,1.57,2.56c0.06,0.66-0.86,1.83-1.56,2.04c-1.23,0.37-2.63,0.22-3.96,0.22
	C1072.9,437.99,1054.59,437.99,1036.29,437.99z"/>
<path class="st5" d="M985.24,570.02c-5.59,0.08-9.28-3.36-9.38-8.74c-0.11-5.46,3.42-9.14,8.9-9.28c5.62-0.14,9.83,3.73,9.82,9.03
	C994.57,566.17,990.65,569.94,985.24,570.02z"/>
<path class="st5" d="M991.6,406.8c-0.01,5.05-4.05,8.96-9.29,9c-5.43,0.04-9.49-4.03-9.37-9.39c0.12-5.26,3.85-8.62,9.47-8.55
	C987.88,397.92,991.61,401.56,991.6,406.8z"/>
<path class="st5" d="M984.95,498.04c-5.63-0.08-9.11-3.52-9.09-8.99c0.02-5.47,4.07-9.23,9.71-9.02c5.28,0.2,9.12,4.2,9,9.37
	C994.46,494.44,990.36,498.12,984.95,498.04z"/>
<path class="st0" d="M751.83,948.03c-13.39-0.01-26.78,0.03-40.17-0.07c-1.69-0.01-3.37-0.75-5.05-1.16c1.2-3.1,0.11-5.49-2.42-7.3
	c-4.28-3.05-8.54-6.14-12.98-8.95c-2.74-1.73-4.39-3.58-4.1-7.11c0.1-1.16-1.5-2.46-2.32-3.69c0.36-4.15,0.72-8.3,1.07-12.45
	c1.95-0.22,3.89-0.44,6.4-0.72c-0.55-7.63-1.04-15.04-1.64-22.44c-4.31-52.88-8.62-105.76-12.99-158.64
	c-0.6-7.27-1.53-14.52-2.31-21.78c-3.14-8.92-6.28-17.85-9.42-26.77c10.33-5.69,10.96-7.62,5.06-17.77
	c-2.49-4.29-5.44-8.31-8.18-12.44c0.99-0.94,1.98-1.89,2.97-2.84c26.81,0.03,53.61,0.18,80.42-0.03c4.72-0.04,5.76,1.43,5.75,5.91
	C751.8,749.2,751.83,848.61,751.83,948.03z"/>
<path class="st0" d="M547.77,914.06c4.82-6.64,9.65-13.28,14.45-19.94c0.96-1.33,1.78-2.75,2.67-4.12
	c11.99,5.18,23.98,10.36,36.38,15.72c11.49-39.85,22.87-79.33,34.25-118.8c3.69,22.13,8.15,43.93,4.05,66.49
	c-2.75,15.17-3.57,30.68-5.37,47.02c12.63,2.67,25.06,5.3,37.48,7.92c0.05,3.97,0.09,7.94,0.14,11.92
	c-1.16,1.07-3.21,2.06-3.32,3.23c-0.76,8.17-1.12,16.37-1.61,24.57c-37.48-0.01-74.95-0.02-112.43-0.03
	c0.17-2.32,1.11-4.92,0.37-6.9c-1.82-4.92-4.24-9.64-6.75-14.27c-1.58-2.91-1.99-5.39,0.17-8.16
	C549.45,917.18,550.69,915.3,547.77,914.06z"/>
<path class="st6" d="M671.83,920.25c-0.05-3.97-0.09-7.94-0.14-11.92c4.72-0.34,9.44-0.68,14.17-1.03
	c-0.36,4.15-0.72,8.3-1.07,12.45C680.47,919.93,676.15,920.09,671.83,920.25z"/>
<path class="st6" d="M665.74,643.91c-0.99,0.95-1.98,1.89-2.97,2.84c-13.91-3.2-27.82-6.41-42.5-9.79c2.44-4.38,4.2-8.1,6.54-11.41
	c0.7-0.99,3.12-1.45,4.53-1.14c4.85,1.06,9.68,2.33,14.35,3.99c3.1,1.1,5.43,0.65,7.59-1.61c0.73-0.3,1.46-0.61,2.19-0.91
	c6.24-1.07,10.46,1.67,13.28,7.04C667.75,636.58,666.75,640.24,665.74,643.91z"/>
<path class="st5" d="M730.48,601.46c-5.13-2.18-6.47-5.1-5.42-9.81c3.77-17.01,6.69-34.23,11.11-51.06
	c1.81-6.9,6.59-13.02,10.03-19.49c0.65,0.26,1.3,0.53,1.95,0.79C742.28,548.25,736.44,574.6,730.48,601.46z"/>
<path class="st5" d="M655.47,625.88c-0.73,0.3-1.46,0.61-2.19,0.91c-6.04-16.99-12.08-33.98-18.29-51.46
	c12.71,9.52,21.71,20.49,20.78,37.1C655.52,616.9,655.56,621.39,655.47,625.88z"/>
<path class="st0" d="M606.89,484.99c0.45,0.14,0.91,0.27,1.37,0.41c-0.19,0.58-0.39,1.15-0.59,1.72
	C607.41,486.41,607.15,485.7,606.89,484.99z"/>
<path class="st0" d="M519.95,932.45c1.47,0.68,2.94,1.36,4.63,2.15c1.46-1.57,2.89-3.11,4.31-4.64c0.29,0.19,0.74,0.4,0.72,0.48
	c-1.66,6.02,1.6,8.83,6.59,11.12c3.62,1.66,6.81,4.28,10.19,6.46c-11.51-0.03-23.03-0.05-34.54-0.08c1.58-2.39,3.37-4.68,4.68-7.21
	C517.91,938.09,518.83,935.22,519.95,932.45z"/>
<path class="st2" d="M671.83,920.25c4.32-0.16,8.64-0.33,12.95-0.49c0.82,1.23,2.42,2.53,2.32,3.69c-0.29,3.52,1.36,5.38,4.1,7.11
	c4.44,2.8,8.7,5.9,12.98,8.95c2.53,1.8,3.62,4.2,2.42,7.3c-4.04,0.35-8.11,1.19-12.11,0.93c-5.74-0.38-11.51,1.4-17.37-1.56
	c-2.46-1.24-6.76,1.15-10.22,1.88c0.49-8.19,0.85-16.4,1.61-24.57C668.62,922.31,670.67,921.33,671.83,920.25z"/>
</svg>
