<?xml version="1.0" encoding="utf-8"?>
<!-- Generator: Adobe Illustrator 25.4.1, SVG Export Plug-In . SVG Version: 6.00 Build 0)  -->
<svg version="1.1" id="Calque_1" xmlns="http://www.w3.org/2000/svg" xmlns:xlink="http://www.w3.org/1999/xlink" x="0px" y="0px"
	 viewBox="0 0 1920 1080" style="enable-background:new 0 0 1920 1080;" xml:space="preserve">
<style type="text/css">
	.st0{fill:#F1F1F1;}
	.st1{fill:#302F42;}
	.st2{fill:#E5E5E5;}
	.st3{fill:#CCCCCC;}
	.st4{fill:#6B62FC;}
	.st5{fill:#FAB4B4;}
	.st6{fill:#FEFEFE;}
</style>
<path class="st0" d="M927.9,695.1c0-39.3-0.1-78.6-0.1-117.9c0-73.4,0-146.8,0-220.3c0-2-0.7-4.1-1.1-6.1c6-3.1,10.2-7.7,11.5-14.4
	c10.9,0.5,21.2,1.3,31.4,1.4c52.1,0.1,104.2,0.1,156.4,0c7.5,0,14.9-0.8,22.4-0.8c31.5-0.1,62.9-0.1,94.4,0c1.3,0,3.4,1.4,3.9,2.6
	c2.8,7.8,8.2,11.3,16.2,11.4c2.1,11.5,4.4,23.1,6.3,34.6c1.1,6.8,2.2,13.8,2.5,20.7c0.7,12.3,1.5,24.6,1,36.9
	c-1.5,36-7.5,71.2-21.1,104.7c-9.8,24.2-22.7,46.4-39.6,66.5c-19.2,22.8-41.7,41.2-67.8,55.3c-7.6,4.1-15.4,7.8-23.2,11.5
	c-1.9,0.9-4.1,1.2-6.2,1.7c-1-0.1-2-0.1-3-0.2c-18.4-1.9-36.8-4.9-55.3-5.6c-28.2-1-56.5-1.1-84.5,3.7
	C956.7,683.5,941.3,686.1,927.9,695.1z M1068.4,582c29.2,0,58.3,0,87.5-0.1c1.9,0,3.7-1.8,5.6-2.8c-1.8-1-3.6-2.1-5.5-3
	c-0.4-0.2-1,0-1.5,0c-57.3,0-114.7,0-172,0c-1.2,0-2.5-0.4-3.5,0.1c-1.2,0.7-2.1,2-3.2,3c1,0.9,1.8,2.2,3,2.7c1.2,0.5,2.6,0.1,4,0.1
	C1011.4,582,1039.9,582,1068.4,582z M1068.4,510c29.2,0,58.3,0,87.5-0.1c1.9,0,3.8-1.8,5.6-2.8c-1.8-1-3.6-2.1-5.4-3
	c-0.4-0.2-1,0-1.5,0c-57.3,0-114.7,0-172,0c-1.2,0-2.5-0.4-3.5,0.1c-1.2,0.7-2.1,2-3.2,3c1,0.9,1.8,2.2,3,2.7c1.2,0.5,2.6,0.1,4,0.1
	C1011.4,510,1039.9,510,1068.4,510z M1068.3,427c28.8,0,57.6,0,86.4,0c1.5,0,3.1,0.1,4.5-0.2c0.7-0.2,1.6-1.4,1.6-2
	c-0.1-0.9-0.8-2.2-1.6-2.5c-1.2-0.5-2.6-0.2-3.9-0.2c-57.8,0-115.6,0-173.3,0c-1.2,0-2.4-0.2-3.5,0.2c-0.9,0.4-2.4,1.6-2.2,2.1
	c0.3,1,1.3,2.3,2.2,2.6c1.3,0.5,3,0.2,4.5,0.2C1011.4,427,1039.8,427,1068.3,427z M1035.8,450c18.2,0,36.3,0,54.5,0
	c1.3,0,2.8,0.3,4-0.2c1.2-0.5,2.1-1.8,3.2-2.7c-1-1-1.8-2.2-3-2.9c-0.8-0.5-1.9-0.2-2.9-0.2c-36.7,0-73.3,0-110,0
	c-2.3,0-5.7-0.8-5.5,3.1c0.2,3.8,3.5,2.8,5.8,2.8C999.8,450,1017.8,450,1035.8,450z M1036.3,587c-17.8,0-35.6-0.1-53.4,0.1
	c-2.5,0-6.8-1.6-6.7,2.7c0,4.4,4.3,3.1,7.1,3.1c35.8,0.1,71.6,0,107.4,0c1.3,0,2.8,0.3,3.9-0.2c1.2-0.5,2.4-1.8,2.7-3
	c0.2-0.6-1.5-2.1-2.6-2.5c-1.2-0.5-2.6-0.2-3.9-0.2C1072.6,587,1054.5,587,1036.3,587z M1036.3,515c-18,0-36,0-53.9,0
	c-1.3,0-2.8-0.3-4,0.2c-1,0.4-2.5,1.8-2.3,2.6c0.2,1.1,1.3,2.5,2.4,3c1.1,0.5,2.6,0.2,3.9,0.2c36,0,71.9,0,107.9,0
	c1.3,0,2.8,0.3,3.9-0.2c1-0.4,2.4-1.8,2.3-2.6c-0.2-1.1-1.3-2.5-2.4-3c-1.1-0.5-2.6-0.2-3.9-0.2C1072.3,515,1054.3,515,1036.3,515z
	 M1036.3,438c18.3,0,36.6,0,54.9,0c1.3,0,2.7,0.1,4-0.2c0.7-0.2,1.6-1.4,1.6-2c-0.1-0.9-0.8-2.2-1.6-2.6c-0.9-0.5-2.3-0.2-3.4-0.2
	c-36.8,0-73.6,0-110.3,0c-1.2,0-2.5-0.2-3.4,0.3c-0.8,0.4-1.7,1.6-1.8,2.5c-0.1,0.6,1,1.8,1.8,2c1.4,0.4,3,0.3,4.5,0.3
	C1000.3,438,1018.3,438,1036.3,438z M985.2,570c5.4-0.1,9.3-3.8,9.3-9c0-5.3-4.2-9.2-9.8-9c-5.5,0.1-9,3.8-8.9,9.3
	C976,566.7,979.7,570.1,985.2,570z M991.6,406.8c0-5.2-3.7-8.9-9.2-8.9c-5.6-0.1-9.3,3.3-9.5,8.5c-0.1,5.4,3.9,9.4,9.4,9.4
	C987.5,415.8,991.6,411.8,991.6,406.8z M985,498c5.4,0.1,9.5-3.6,9.6-8.6c0.1-5.2-3.7-9.2-9-9.4c-5.6-0.2-9.7,3.5-9.7,9
	C975.8,494.5,979.3,498,985,498z"/>
<path class="st1" d="M549.9,883.1c0.1-1.7-0.3-3.7,0.4-5.1c9.3-17.6,18.4-35.4,28.4-52.7c5.4-9.3,7.3-18.9,8.1-29.3
	c2-26.2,4.6-52.4,7-78.7c0.1-1,0.5-1.9,0.8-2.8c3.3,4.1,7.9,5.5,12.8,5.4c5-0.1,10-0.2,14.9-1c18.2-2.9,35.9-8.1,53-15.2
	c0.8,7.3,1.7,14.5,2.3,21.8c4.4,52.9,8.7,105.8,13,158.6c0.6,7.4,1.1,14.8,1.6,22.4c-2.5,0.3-4.5,0.5-6.4,0.7
	c-4.7,0.3-9.4,0.7-14.2,1c-12.4-2.6-24.8-5.2-37.5-7.9c1.8-16.3,2.6-31.8,5.4-47c4.1-22.5-0.4-44.3-4-66.5
	c-11.4,39.5-22.8,79-34.2,118.8c-12.4-5.4-24.4-10.5-36.4-15.7C559.9,887.7,554.9,885.4,549.9,883.1z"/>
<path class="st1" d="M696.4,590.4c3.6,8.1,3.3,10.1-3.3,16.3c-3.4,3.2-7,6-11.2,9.6c3.8,0.5,7.3,1.1,10.8,1.2
	c4.2,0.2,8.3-0.2,12.5-0.2c4.1,0,8.3,0,12.8,0c2.3-10.7,4.5-21,6.8-31.4c3.7-16.9,7.5-33.8,11-50.7c1.8-9,9.1-14,14.1-20.8
	c0.5-0.7,3.4-0.9,3.9-0.3c0.8,1,1,3,0.7,4.4c-3.8,17.9-8,35.7-11.6,53.7c-4,20.2-7.5,40.5-11.3,60.8c-21,0-41.9,0-62.8,0
	c-2.8-5.4-7-8.1-13.3-7c0.1-4.5,0-9,0.3-13.5c0.9-16.6-8.1-27.6-20.8-37.1c6.2,17.5,12.2,34.5,18.3,51.5c-2.2,2.3-4.5,2.7-7.6,1.6
	c-4.7-1.7-9.5-2.9-14.3-4c-1.4-0.3-3.8,0.2-4.5,1.1c-2.3,3.3-4.1,7-6.5,11.4c14.7,3.4,28.6,6.6,42.5,9.8c2.7,4.1,5.7,8.2,8.2,12.5
	c5.9,10.2,5.3,12.1-5.1,17.8c-3.5-8.9-7-17.8-10.6-27.2c-1.2,2.2-1.8,4.3-3.2,5.5c-5.6,4.4-7.8,10.5-9.2,17.2c-1.2,5.9-4,8.1-10,8.6
	c-2.8,0.2-5.7,0.2-8.5,0.2c-9.6,0.2-19.3,0.3-28.9,0.5c-1.2-2.5-3.7-5.3-3.4-7.6c0.9-6,2.3-12,4.8-17.5c3.2-7.1,0.9-14.7-6.1-18.4
	c-7.3-3.8-14.5-8-21.3-12.6c-5.7-3.8-6.8-9.4-4.1-15.8c5.4-12.6,10.5-25.4,16-38c2.4-5.6,5.7-10.6,12.5-11.8c1-0.2,1.8-1.3,2.7-2.1
	c4.4-4,8.8-8.1,13.5-12.4c8.2,4.5,14.3,11.2,20,18.3c0.7,0.9,1.2,2,2.1,2.7c9.8,7.6,19.6,15.2,29.9,23.2c5.5-3.1,12.3-6.9,19.1-10.6
	c2.4-1.3,5.2-2,7.8-3C691.4,580.9,693.9,585.6,696.4,590.4z M730.5,601.5c6-26.9,11.8-53.2,17.7-79.6c-0.7-0.3-1.3-0.5-2-0.8
	c-3.4,6.5-8.2,12.6-10,19.5c-4.4,16.8-7.3,34-11.1,51.1C724,596.4,725.3,599.3,730.5,601.5z"/>
<path class="st1" d="M608.4,485.4c1.4-0.5,2.8-1.1,4.5-1.8c-0.4,1.1-0.7,1.9-1.6,4.2c3.3-0.5,6.1-0.5,8.4-1.5
	c7.6-3.4,16.1-2,22.1,5.1c3.6,4.3,5.9,9.6,9,14.9c-2.7,1.2-4,1.8-5.3,2.5c-2.8,0.1-5.6,0.3-8.5,0.4c-0.4-1.5-0.8-2.8-1.2-4.4
	c-4.1,5.2-7.5,10-6.2,17.1c1.1,6,1,12.2,1.5,18.4c-0.2,1.1-0.5,2.2-0.8,3.9c-0.4-1.1-0.6-1.7-0.8-2.3c-1.3-6.7-1.9-13.6-8.3-18
	c-0.5,2.3,0,4.2,0.7,6c1.4,4.3,1.6,8.2-3.2,10.6c-3.1-0.2-6.3,0.1-9.1-0.9c-3.6-1.2-7.5-2.9-10.2-5.5c-6-5.6-8.1-13.2-8-21.3
	c-16.5,4.2-25.3,17.1-23.4,33.8c0.4,3.1,0.7,6.3,1,9.4c1.2,16.1-8.8,26-25,24.4c-3.7-0.4-7.6-1.6-10.7-3.5
	c-5.6-3.5-6.5-10.3-2.7-15.7c1-1.4,2.1-2.6,3.2-3.9c7.1-8.2,7.1-9.2,2.2-18.8c-2-4-4.1-8.1-5.2-12.3c-4-15,7.3-28.9,22.7-28
	c4.5,0.2,8.9,1.3,13.4,1.8c7.8,0.7,12.3-2.3,14.7-9.7c3.1-9.2,6.6-10.8,15.9-7.1c0.6,0.2,1.2,0.5,1.7,0.7c0.6-1.6,1.1-3.2,1.6-4.8
	c0.8,3,1.6,5.9,2.4,8.9c0.5-0.1,1-0.2,1.5-0.3c0.2-1.5,0.3-2.9,0.6-5.5c0.9,1.7,1.3,2.4,1.6,3c0.3,0.7,0.5,1.4,0.8,2.1
	c0.2-0.6,0.4-1.1,0.6-1.7L608.4,485.4z"/>
<path class="st2" d="M668.8,632.9c21,0,41.9,0,62.8,0c5.2,0,10.3-0.2,15.5,0.1c3.8,0.2,4.9-1,4.8-4.8c-0.2-15.5-0.1-31-0.1-46.5
	c0-5.1,2.1-8.1,5.6-7.7c4.5,0.4,5.4,3.9,5.4,7.6c0,17.7,0,35.3,0,53c0,104.5,0,208.9,0,313.4c-3.7,0-7.3,0-11,0
	c0-99.4,0-198.8,0.1-298.2c0-4.5-1-5.9-5.8-5.9c-26.8,0.2-53.6,0.1-80.4,0C666.8,640.2,667.8,636.6,668.8,632.9z"/>
<path class="st0" d="M488.8,948c-2.1-6.8-4-13.7-6.5-20.3c-0.5-1.3-3.1-2.5-4.8-2.5c-15.2,0-35.4-14-40.3-29c5.4-5.5,5.1-7-1.2-11.2
	c-1.2-0.8-2.8-2.8-2.5-3.6c0.6-1.7,2.2-3.2,3.8-4.2c0.9-0.6,2.8-0.5,3.9,0.1c10.9,5.9,23.4,9,32.1,18.6c1.8,1.9,3.2,4.2,5.1,6.7
	c0.5-4.2,0.9-8,1.5-11.8c1.4-8.6,2.8-17.3,4.6-25.8c0.7-3.3,0-5.1-3-6.9c-12.2-7.4-19.2-18.5-22.3-32.2c-0.4-1.7,1.2-3.7,1.6-5.7
	c0.5-2.2,1.6-5.2,0.6-6.6c-1.8-2.5-3.4-4.3-1.3-7.3c2.4-3.3,5.6-4.9,9.5-4.2c2,0.3,4.3,1.3,5.6,2.8c7.2,7.8,14.2,16,16,27
	c0.7,4.2,0.6,8.6,0.9,13.2c3.9-5.9,7.8-11.5,11.3-17.4c0.6-1-0.1-3.3-0.9-4.7c-3.9-6.9-5.1-14.1-2.3-21.5c3.6-9.8,13-11.5,19.4-3.8
	c-4.9,8-4.9,8.1,2.2,11.2c-1.7,6.4-5.8,11.2-10.3,16c-5.1,5.3-10.2,10.9-14,17.1c-12,19.9-16.7,41.8-15.5,64.8
	c0.6,11.5,2.9,22.8,7.8,34.3c0.9-1.6,1.6-2.4,1.9-3.4c2.5-7.3,4.5-14.9,7.4-22c2.6-6.5,11.2-7.9,15.8-3.2c0.7,0.7,1.8,1.9,1.6,2.3
	c-2.2,4.9,1.5,7.6,3.7,10.9c-0.4,2.1-4.6,4.1-0.3,6.4c-1.1,2.8-2,5.7-3.4,8.3c-1.3,2.5-3.1,4.8-4.7,7.2
	C504.2,948,496.5,948,488.8,948z"/>
<path class="st3" d="M927.9,695.1c13.3-9,28.7-11.6,44.2-14.2c28-4.8,56.3-4.7,84.5-3.7c18.5,0.6,36.9,3.6,55.3,5.6
	c1,0.1,2,0.1,3,0.2c-3.5,1.7-6.9,3.7-10.6,5c-23.5,8.4-47.7,13.7-72.4,17.3c-29.1,4.2-58.3,3.9-87.5,3.7c-5.3,0-10.5-0.8-16.4-1.3
	C927.9,703.3,927.9,699.2,927.9,695.1z"/>
<path class="st4" d="M595.5,681.7c9.6-0.2,19.3-0.3,28.9-0.5c2.8,0,5.7,0,8.5-0.2c6-0.5,8.8-2.8,10-8.6c1.4-6.7,3.5-12.8,9.2-17.2
	c1.4-1.1,2-3.3,3.2-5.5c3.7,9.4,7.2,18.3,10.6,27.2c3.1,8.9,6.3,17.8,9.4,26.8c-17.1,7.1-34.7,12.3-53,15.2c-4.9,0.8-9.9,0.9-14.9,1
	c-5,0.1-9.5-1.4-12.8-5.4C591.8,703.5,594.4,692.6,595.5,681.7z"/>
<path class="st3" d="M1262.9,351.1c-8-0.1-13.5-3.7-16.2-11.4c-0.4-1.2-2.6-2.6-3.9-2.6c-31.5-0.1-62.9-0.1-94.4,0
	c-7.5,0-14.9,0.8-22.4,0.8c-52.1,0.1-104.2,0.1-156.4,0c-10.3,0-20.6-0.9-31.4-1.4c-1.3,6.7-5.5,11.3-11.5,14.4
	c-6.8,0.6-13.3,0.2-17.8-6.2c-4-5.6-4.4-11.5-1.2-17.3c3.2-5.9,8.5-8.9,15.3-8.4c6.7,0.5,11.4,4.1,13.9,10.5
	c0.6,1.7,1.1,3.4,1.5,4.7c12.8,0,25.2,0,37.7,0c1.7,0,3.3-0.1,5-0.1c23.7-0.1,47.3,0,71-0.2c41.6-0.2,83.3-0.7,124.9-0.8
	c16,0,31.9,0.5,47.9,1c5.3,0.1,10.6,0.4,15.9,1c3.7,0.4,5.2-1,6.3-4.4c3.3-10.3,14.2-14.8,23.1-9.8c6,3.4,9.8,10.9,8.4,16.7
	C1276.5,345.9,1271.3,350.4,1262.9,351.1z"/>
<path class="st3" d="M488.8,948c7.7,0,15.4,0,23.1-0.1c11.5,0,23,0,34.5,0.1c2.7,0,5.4,0,8.1,0c37.5,0,75,0,112.4,0
	c3.5-0.7,7.8-3.1,10.2-1.9c5.9,3,11.6,1.2,17.4,1.6c4,0.3,8.1-0.6,12.1-0.9c1.7,0.4,3.4,1.1,5,1.2c13.4,0.1,26.8,0.1,40.2,0.1
	c3.7,0,7.3,0,11,0c30.9,0,61.9,0,92.8,0c0,0.8,0,1.5,0,2.2c-145.2,0-290.4,0-435.7,0c0-0.5,0-1.1,0-1.6
	C442.9,948.5,465.9,948.2,488.8,948z"/>
<path class="st1" d="M554.5,948c-2.7,0-5.4,0-8.1,0c-3.4-2.2-6.6-4.8-10.2-6.5c-5-2.3-8.2-5.1-6.6-11.1c0-0.1-0.4-0.3-0.7-0.5
	c-1.4,1.5-2.9,3.1-4.3,4.6c-1.7-0.8-3.2-1.5-4.6-2.2c-4.3-2.3-0.1-4.3,0.3-6.4c3.7-5.2,7.5-10.4,10.9-15.8c1.6-2.4,3.1-3,5.5-1.7
	c3.7,1.8,7.4,3.7,11.1,5.5c2.9,1.2,1.7,3.1,0.5,4.6c-2.2,2.8-1.7,5.2-0.2,8.2c2.5,4.6,4.9,9.3,6.8,14.3
	C555.6,943.1,554.6,945.7,554.5,948z"/>
<path class="st5" d="M696.4,590.4c-2.5-4.7-5-9.5-7.5-14.2c5.5-4.4,11.1-8.8,16.5-13.3c0.7-0.6,0.7-2.3,0.7-3.5
	c0-5.1,3.3-9.6,8.4-11c4.1-1.1,9.4,1.3,11.4,5.1c2.5,4.6,1.4,10-2.6,13.4C714.4,574.7,705.4,582.5,696.4,590.4z"/>
<path class="st5" d="M631.3,540.2c-0.5-6.1-0.4-12.4-1.5-18.4c-1.3-7,2.1-11.8,6.2-17.1c0.5,1.6,0.8,3,1.2,4.4
	c2.9-0.1,5.7-0.3,8.5-0.4C652.4,521.1,642.2,538.5,631.3,540.2z"/>
<path class="st5" d="M547.8,914.1c-3.7-1.8-7.4-3.7-11.1-5.5c4-7.6,8-15.2,12-22.8c0.5-0.9,0.8-1.8,1.2-2.7c5,2.3,10,4.6,15,6.9
	c-0.9,1.4-1.7,2.8-2.7,4.1C557.4,900.8,552.6,907.4,547.8,914.1z"/>
<path class="st5" d="M618.8,540.5c4.8-2.4,4.6-6.3,3.2-10.6c-0.6-1.9-1.1-3.7-0.7-6c6.4,4.3,7.1,11.3,8.3,18
	C626,541.4,622.4,540.9,618.8,540.5z"/>
<path class="st3" d="M606.9,485c-0.4-0.7-0.7-1.3-1.6-3c-0.3,2.5-0.4,4-0.6,5.5c-0.5,0.1-1,0.2-1.5,0.3c-0.8-3-1.6-5.9-2.4-8.9
	l0,0.1c0.7-0.3,1.3-0.6,2-0.9c1.4,1,2.8,2,5.1,3.6c0,0.4,0.3,2.1,0.6,3.8c0,0-0.1,0-0.1,0C607.8,485.3,607.3,485.1,606.9,485z"/>
<path class="st2" d="M612.8,481.9c-0.7-1.3-1.5-2.6-2.6-4.7c0.3,0,1.6-0.4,2.7-0.1c2.6,0.8,4,2.3,1.5,4.8
	C613.8,481.9,613.3,481.9,612.8,481.9z"/>
<path class="st1" d="M602.8,478c-0.7,0.3-1.3,0.6-2,0.9C601.4,478.6,602.1,478.3,602.8,478z"/>
<path class="st1" d="M612.8,481.9c0.5,0,1.1,0,1.6,0c-0.4,0.4-0.8,0.8-1.2,1.1C613,482.7,612.9,482.3,612.8,481.9z"/>
<path class="st3" d="M1068.4,582c-28.5,0-57,0-85.5,0c-1.3,0-2.8,0.3-4-0.1c-1.2-0.5-2-1.8-3-2.7c1-1,1.9-2.4,3.2-3
	c0.9-0.5,2.3-0.1,3.5-0.1c57.3,0,114.7,0,172,0c0.5,0,1.1-0.2,1.5,0c1.8,1,3.6,2,5.5,3c-1.9,1-3.7,2.8-5.6,2.8
	C1126.7,582,1097.5,582,1068.4,582z"/>
<path class="st3" d="M1068.4,510c-28.5,0-57,0-85.5,0c-1.3,0-2.8,0.3-4-0.1c-1.2-0.5-2-1.8-3-2.7c1-1,1.9-2.4,3.2-3
	c0.9-0.5,2.3-0.1,3.5-0.1c57.3,0,114.7,0,172,0c0.5,0,1.1-0.2,1.5,0c1.8,1,3.6,2,5.4,3c-1.9,1-3.7,2.8-5.6,2.8
	C1126.7,510,1097.5,510,1068.4,510z"/>
<path class="st3" d="M1068.3,427c-28.5,0-57,0-85.4,0c-1.5,0-3.1,0.3-4.5-0.2c-1-0.3-2-1.6-2.2-2.6c-0.1-0.5,1.3-1.7,2.2-2.1
	c1-0.4,2.3-0.2,3.5-0.2c57.8,0,115.6,0,173.3,0c1.3,0,2.8-0.2,3.9,0.2c0.8,0.3,1.5,1.6,1.6,2.5c0.1,0.7-0.9,1.9-1.6,2
	c-1.4,0.4-3,0.2-4.5,0.2C1125.9,427,1097.1,427,1068.3,427z"/>
<path class="st3" d="M1035.8,450c-18,0-36,0-54,0c-2.3,0-5.7,1-5.8-2.8c-0.2-3.9,3.2-3.1,5.5-3.1c36.7,0,73.3,0,110,0
	c1,0,2.2-0.3,2.9,0.2c1.2,0.7,2,1.9,3,2.9c-1,0.9-1.9,2.2-3.2,2.7c-1.1,0.5-2.6,0.2-4,0.2C1072.2,450,1054,450,1035.8,450z"/>
<path class="st3" d="M1036.3,587c18.2,0,36.3,0,54.4,0c1.3,0,2.8-0.2,3.9,0.2c1.1,0.4,2.7,1.9,2.6,2.5c-0.3,1.2-1.6,2.4-2.7,3
	c-1.1,0.5-2.6,0.2-3.9,0.2c-35.8,0-71.6,0-107.4,0c-2.7,0-7.1,1.3-7.1-3.1c0-4.3,4.2-2.7,6.7-2.7
	C1000.7,586.9,1018.5,587,1036.3,587z"/>
<path class="st3" d="M1036.3,515c18,0,36,0,53.9,0c1.3,0,2.8-0.3,3.9,0.2c1.1,0.5,2.3,1.9,2.4,3c0.1,0.8-1.3,2.2-2.3,2.6
	c-1.2,0.5-2.6,0.2-3.9,0.2c-36,0-71.9,0-107.9,0c-1.3,0-2.8,0.3-3.9-0.2c-1.1-0.5-2.3-1.9-2.4-3c-0.1-0.8,1.3-2.1,2.3-2.6
	c1.2-0.5,2.6-0.2,4-0.2C1000.4,515,1018.4,515,1036.3,515z"/>
<path class="st3" d="M1036.3,438c-18,0-36,0-53.9,0c-1.5,0-3,0.1-4.5-0.3c-0.8-0.2-1.8-1.4-1.8-2c0.1-0.9,0.9-2.1,1.8-2.5
	c1-0.5,2.3-0.3,3.4-0.3c36.8,0,73.6,0,110.3,0c1.2,0,2.5-0.2,3.4,0.2c0.8,0.4,1.5,1.6,1.6,2.6c0.1,0.7-0.9,1.8-1.6,2
	c-1.2,0.4-2.6,0.2-4,0.2C1072.9,438,1054.6,438,1036.3,438z"/>
<path class="st4" d="M985.2,570c-5.6,0.1-9.3-3.4-9.4-8.7c-0.1-5.5,3.4-9.1,8.9-9.3c5.6-0.1,9.8,3.7,9.8,9
	C994.6,566.2,990.7,569.9,985.2,570z"/>
<path class="st4" d="M991.6,406.8c0,5-4,9-9.3,9c-5.4,0-9.5-4-9.4-9.4c0.1-5.3,3.8-8.6,9.5-8.5C987.9,397.9,991.6,401.6,991.6,406.8
	z"/>
<path class="st4" d="M985,498c-5.6-0.1-9.1-3.5-9.1-9c0-5.5,4.1-9.2,9.7-9c5.3,0.2,9.1,4.2,9,9.4C994.5,494.4,990.4,498.1,985,498z"
	/>
<path class="st6" d="M751.8,948c-13.4,0-26.8,0-40.2-0.1c-1.7,0-3.4-0.8-5-1.2c1.2-3.1,0.1-5.5-2.4-7.3c-4.3-3-8.5-6.1-13-9
	c-2.7-1.7-4.4-3.6-4.1-7.1c0.1-1.2-1.5-2.5-2.3-3.7c0.4-4.2,0.7-8.3,1.1-12.5c2-0.2,3.9-0.4,6.4-0.7c-0.5-7.6-1-15-1.6-22.4
	c-4.3-52.9-8.6-105.8-13-158.6c-0.6-7.3-1.5-14.5-2.3-21.8c-3.1-8.9-6.3-17.8-9.4-26.8c10.3-5.7,11-7.6,5.1-17.8
	c-2.5-4.3-5.4-8.3-8.2-12.4c1-0.9,2-1.9,3-2.8c26.8,0,53.6,0.2,80.4,0c4.7,0,5.8,1.4,5.8,5.9C751.8,749.2,751.8,848.6,751.8,948z"/>
<path class="st6" d="M547.8,914.1c4.8-6.6,9.7-13.3,14.5-19.9c1-1.3,1.8-2.8,2.7-4.1c12,5.2,24,10.4,36.4,15.7
	c11.5-39.8,22.9-79.3,34.2-118.8c3.7,22.1,8.2,43.9,4,66.5c-2.8,15.2-3.6,30.7-5.4,47c12.6,2.7,25.1,5.3,37.5,7.9
	c0,4,0.1,7.9,0.1,11.9c-1.2,1.1-3.2,2.1-3.3,3.2c-0.8,8.2-1.1,16.4-1.6,24.6c-37.5,0-75,0-112.4,0c0.2-2.3,1.1-4.9,0.4-6.9
	c-1.8-4.9-4.2-9.6-6.8-14.3c-1.6-2.9-2-5.4,0.2-8.2C549.5,917.2,550.7,915.3,547.8,914.1z"/>
<path class="st5" d="M671.8,920.2c0-4-0.1-7.9-0.1-11.9c4.7-0.3,9.4-0.7,14.2-1c-0.4,4.2-0.7,8.3-1.1,12.5
	C680.5,919.9,676.2,920.1,671.8,920.2z"/>
<path class="st5" d="M665.7,643.9c-1,1-2,1.9-3,2.8c-13.9-3.2-27.8-6.4-42.5-9.8c2.4-4.4,4.2-8.1,6.5-11.4c0.7-1,3.1-1.5,4.5-1.1
	c4.8,1.1,9.7,2.3,14.3,4c3.1,1.1,5.4,0.7,7.6-1.6c0.7-0.3,1.5-0.6,2.2-0.9c6.2-1.1,10.5,1.7,13.3,7
	C667.8,636.6,666.8,640.2,665.7,643.9z"/>
<path class="st4" d="M730.5,601.5c-5.1-2.2-6.5-5.1-5.4-9.8c3.8-17,6.7-34.2,11.1-51.1c1.8-6.9,6.6-13,10-19.5
	c0.7,0.3,1.3,0.5,2,0.8C742.3,548.2,736.4,574.6,730.5,601.5z"/>
<path class="st4" d="M655.5,625.9c-0.7,0.3-1.5,0.6-2.2,0.9c-6-17-12.1-34-18.3-51.5c12.7,9.5,21.7,20.5,20.8,37.1
	C655.5,616.9,655.6,621.4,655.5,625.9z"/>
<path class="st6" d="M606.9,485c0.5,0.1,0.9,0.3,1.4,0.4c-0.2,0.6-0.4,1.1-0.6,1.7C607.4,486.4,607.2,485.7,606.9,485z"/>
<path class="st6" d="M520,932.5c1.5,0.7,2.9,1.4,4.6,2.2c1.5-1.6,2.9-3.1,4.3-4.6c0.3,0.2,0.7,0.4,0.7,0.5c-1.7,6,1.6,8.8,6.6,11.1
	c3.6,1.7,6.8,4.3,10.2,6.5c-11.5,0-23,0-34.5-0.1c1.6-2.4,3.4-4.7,4.7-7.2C517.9,938.1,518.8,935.2,520,932.5z"/>
<path class="st1" d="M671.8,920.2c4.3-0.2,8.6-0.3,13-0.5c0.8,1.2,2.4,2.5,2.3,3.7c-0.3,3.5,1.4,5.4,4.1,7.1c4.4,2.8,8.7,5.9,13,9
	c2.5,1.8,3.6,4.2,2.4,7.3c-4,0.3-8.1,1.2-12.1,0.9c-5.7-0.4-11.5,1.4-17.4-1.6c-2.5-1.2-6.8,1.2-10.2,1.9c0.5-8.2,0.8-16.4,1.6-24.6
	C668.6,922.3,670.7,921.3,671.8,920.2z"/>
</svg>
